# xmcd
#
# Track frame offsets:
#	150
#	11987
#	28567
#	37067
#	47297
#	56630
#	68427
#	81067
#	93135
#	103130
#	113070
#	124612
#	135852
#	146712
#	157870
#	168597
#	180467
#	193300
#	201932
#	211530
#
# Disc length: 2994 seconds
#
# Revision: 3
# Processed by: cddbd v1.5.2PL0 Copyright (c) Steve Scherf et al.
# Submitted via: dBpowerAMP V4.0
#
DISCID=060bb014
DTITLE=Various Artist - 20 Bluegrass Originals
DYEAR=1987
DGENRE=Bluegrass
TTITLE0=Roll in My Sweet Baby's Arms - Flatt and Scruggs
TTITLE1=Honey, You Don't Know My Mind - Jimmy Martin
TTITLE2=Dreaming - The Kentucky Travelers
TTITLE3=Willow Garden - Charlie Monroe
TTITLE4=The Girl in the Blue Velvet Band - Hylo Brown
TTITLE5=I Know You're Married (But I Love You Still) - Reno and Smiley
TTITLE6=She's a Cute Thing - Bobby Osborne
TTITLE7=I Still Write Your Name in the Sand - Mac Wiseman
TTITLE8=Eating Out of Your Hand  Bill Harrell
TTITLE9=Down the Road - Lester Flatt
TTITLE10=Hard Hearted - Jim and Jesse
TTITLE11=Beautiful Blue Eyes - Red Allen
TTITLE12=Blue Ridge Mountain Blues - Bill Clifton
TTITLE13=New Freedom Bell - The Country Gentlemen
TTITLE14=Windy Mountain - Lonesome Pine Fiddlers
TTITLE15=How Far to Little Rock - The Stanley Brothers
TTITLE16=Old Rattler - Grandpa Jones
TTITLE17=Me and the Jukebox - Buzz Busby
TTITLE18=Truck Driver's Queen - Charlie Monroe and Bill Napier
TTITLE19=Log Cabin in the Lane - Jim Eanes
EXTD=
EXTT0=
EXTT1=
EXTT2=
EXTT3=
EXTT4=
EXTT5=
EXTT6=
EXTT7=
EXTT8=
EXTT9=
EXTT10=
EXTT11=
EXTT12=
EXTT13=
EXTT14=
EXTT15=
EXTT16=
EXTT17=
EXTT18=
EXTT19=
PLAYORDER=
